<?xml version="1.0" standalone="no"?>
<!DOCTYPE svg PUBLIC "-//W3C//DTD SVG 20010904//EN"
 "http://www.w3.org/TR/2001/REC-SVG-20010904/DTD/svg10.dtd">
<svg version="1.0" xmlns="http://www.w3.org/2000/svg"
 width="557.000000pt" height="524.000000pt" viewBox="0 0 557.000000 524.000000"
 preserveAspectRatio="xMidYMid meet">
<metadata>
Created by potrace 1.10, written by Peter Selinger 2001-2011
</metadata>
<g transform="translate(0.000000,524.000000) scale(0.100000,-0.100000)"
fill="#000000" stroke="none">
<path d="M4490 5088 c-2 -936 1 -2792 5 -2796 3 -3 5 659 5 1471 0 813 -2
1477 -5 1477 -3 0 -5 -69 -5 -152z"/>
<path d="M1350 5129 c-189 -59 -439 -175 -600 -277 -62 -39 -66 -44 -92 -114
-15 -40 -152 -406 -305 -813 l-278 -740 -1 -95 c0 -52 -4 -148 -9 -212 -8
-119 11 -413 25 -374 4 13 11 0 23 -43 10 -34 26 -81 36 -104 18 -38 58 -294
48 -303 -12 -12 -63 167 -77 266 -21 146 -30 176 -25 79 14 -250 138 -516 339
-726 249 -261 549 -425 971 -532 295 -75 728 -94 1063 -47 757 105 1418 495
1714 1011 119 208 169 387 170 614 0 120 -18 285 -31 277 -3 -2 -7 43 -8 101
-3 114 -25 219 -73 343 -19 50 -32 111 -40 180 -6 58 -13 121 -15 140 -3 19
-19 156 -35 304 -31 267 -31 270 -67 335 -57 102 -138 208 -232 301 -124 123
-148 139 -223 150 -84 13 -440 62 -718 100 -124 16 -252 34 -285 40 -33 5 -80
12 -105 15 -25 3 -106 14 -180 25 -74 11 -268 38 -430 60 -162 22 -336 46
-385 53 -88 13 -93 12 -175 -14z m181 -9 c30 -6 77 -13 104 -16 48 -5 222 -29
275 -39 14 -2 70 -9 124 -15 55 -6 105 -15 111 -20 7 -5 14 -8 17 -5 5 5 200
-18 326 -39 48 -8 116 -17 151 -21 36 -3 83 -10 105 -15 43 -9 140 -22 166
-22 8 0 67 -8 130 -18 63 -11 144 -22 179 -25 36 -3 83 -10 105 -14 23 -5 68
-12 101 -16 230 -24 266 -35 328 -90 144 -131 246 -255 310 -376 l38 -71 -24
-66 c-30 -80 -90 -241 -202 -537 -46 -121 -136 -362 -201 -535 -64 -173 -132
-356 -151 -406 l-34 -91 -102 -61 c-179 -106 -308 -165 -512 -237 l-120 -42
-195 28 c-107 15 -247 35 -310 44 -63 8 -162 22 -220 31 -58 8 -168 23 -245
34 -77 10 -207 29 -290 40 -146 21 -194 28 -360 50 -44 6 -110 16 -147 21 -38
5 -101 13 -140 19 -40 5 -109 15 -153 21 -44 6 -105 14 -136 18 -62 8 -87 23
-189 117 -101 94 -280 338 -280 381 0 10 110 311 155 423 8 19 44 116 80 215
36 99 72 196 80 215 26 66 215 568 287 762 12 33 46 59 163 125 117 66 238
124 350 166 218 84 228 86 326 67z m2583 -907 c4 -40 13 -123 22 -185 8 -62
17 -135 19 -163 8 -97 16 -161 31 -266 l15 -106 -271 -724 c-371 -989 -332
-891 -337 -864 -2 18 -40 344 -77 669 l-12 110 58 155 c32 86 101 271 154 411
52 140 103 275 113 300 10 25 76 201 147 392 71 190 130 346 131 345 0 -1 4
-34 7 -74z m130 -848 c14 -44 28 -105 32 -135 3 -30 9 -80 14 -111 5 -31 6
-108 4 -170 -16 -359 -245 -736 -621 -1023 -35 -26 -63 -44 -63 -41 0 3 7 20
16 37 8 16 22 49 29 72 7 22 39 109 70 191 31 83 65 173 75 200 11 28 37 97
59 155 22 58 103 274 180 480 175 469 164 441 172 432 4 -4 18 -43 33 -87z
m-4000 -483 c48 -58 102 -112 217 -212 31 -27 28 -14 59 -295 26 -238 61 -532
65 -545 5 -15 150 -110 265 -173 175 -95 466 -191 695 -227 329 -53 699 -49
1025 11 135 24 272 62 277 77 6 13 -3 112 -27 307 -5 39 -13 115 -20 170 -6
55 -17 152 -25 215 -8 63 -11 118 -7 121 4 3 63 25 132 48 139 47 420 180 511
242 75 51 88 56 87 32 -1 -26 14 -187 18 -194 1 -3 8 -55 14 -115 6 -60 13
-129 16 -154 2 -25 8 -74 14 -110 5 -36 12 -93 15 -128 11 -111 7 -110 118
-26 183 142 350 326 450 499 90 155 166 383 168 500 0 47 2 55 9 37 5 -12 12
-91 14 -175 l5 -152 -14 90 -14 90 6 -95 c9 -170 8 -190 -19 -290 -72 -272
-259 -548 -513 -760 -70 -58 -108 -86 -237 -172 -15 -10 -31 -18 -36 -18 -5 0
-15 -7 -23 -16 -7 -9 -45 -31 -83 -50 -39 -20 -78 -39 -86 -44 -8 -5 -35 -18
-60 -28 -25 -11 -72 -31 -105 -45 -189 -79 -495 -161 -685 -183 -274 -32 -517
-31 -810 1 -67 7 -238 42 -323 65 -122 34 -373 127 -402 150 -5 4 -41 24 -80
45 -254 133 -460 326 -588 550 -44 78 -46 83 -62 230 -9 83 -23 164 -30 180
-7 17 -16 64 -20 105 -3 41 -15 143 -25 225 -19 154 -26 233 -35 365 l-5 75
50 -78 c27 -43 74 -108 104 -145z m-141 -112 c29 -216 37 -305 27 -293 -10 13
-30 79 -35 115 -8 55 -18 303 -12 298 3 -3 12 -57 20 -120z m647 -160 c74 -11
236 -33 360 -50 287 -39 516 -71 680 -95 19 -3 67 -9 105 -15 500 -67 845
-117 850 -122 7 -6 96 -800 90 -806 -2 -2 -73 6 -157 18 -84 12 -200 28 -258
35 -58 8 -150 21 -205 29 -55 8 -122 17 -150 21 -27 3 -77 10 -110 15 -33 6
-161 24 -285 40 -124 17 -286 39 -360 50 -74 10 -205 28 -290 40 -85 11 -180
25 -210 30 -30 5 -82 12 -115 16 -77 8 -105 19 -105 41 0 18 -12 129 -31 291
-24 214 -30 264 -39 357 -6 55 -13 108 -16 119 -7 21 -8 21 246 -14z m105
-830 c116 -16 242 -34 280 -40 39 -5 171 -24 295 -41 340 -46 498 -68 570 -79
36 -5 81 -12 100 -14 119 -14 214 -27 219 -31 3 -1 51 -8 106 -15 55 -6 110
-13 122 -15 12 -2 57 -8 100 -14 43 -6 94 -14 113 -17 l35 -6 -50 -14 c-71
-20 -293 -60 -410 -74 -123 -15 -479 -15 -618 0 -331 36 -625 123 -882 262
-105 56 -217 128 -200 128 6 0 104 -13 220 -30z"/>
<path d="M1505 4955 c-27 -7 -90 -32 -140 -55 -49 -23 -110 -51 -135 -62 -201
-92 -320 -154 -348 -181 -92 -89 -40 -210 105 -241 47 -11 129 -108 117 -139
-3 -9 -65 -45 -137 -80 -158 -77 -223 -131 -267 -220 -66 -136 -47 -219 86
-376 25 -29 44 -60 42 -70 -2 -9 -37 -33 -78 -54 -65 -34 -85 -39 -156 -42
-102 -5 -154 -26 -204 -83 -31 -35 -40 -53 -40 -82 0 -47 16 -70 195 -285 127
-153 149 -174 196 -195 47 -20 63 -22 133 -16 88 7 125 25 174 80 16 19 31 38
33 43 6 13 119 69 156 77 43 10 61 -2 124 -79 133 -164 319 -229 550 -191 94
15 125 26 268 93 92 43 133 45 172 7 16 -15 29 -33 29 -40 0 -7 5 -14 12 -16
6 -2 14 -31 18 -65 11 -86 27 -114 85 -142 93 -46 160 -40 300 25 28 12 91 41
140 64 94 43 106 49 257 130 148 79 194 150 148 225 -27 44 -51 61 -119 81
-59 17 -131 83 -131 120 0 29 14 39 140 100 130 63 168 90 214 154 54 75 76
125 82 188 5 48 3 66 -16 103 -28 55 -69 112 -115 163 -51 56 -45 73 43 119
64 34 84 39 150 42 131 5 232 66 248 149 3 19 3 44 -1 56 -7 23 -236 302 -313
382 -71 74 -154 94 -259 63 -60 -18 -96 -45 -128 -95 -18 -28 -42 -46 -100
-73 -113 -54 -130 -51 -201 30 -133 151 -201 191 -364 213 -145 20 -260 -4
-461 -97 -112 -52 -139 -50 -197 14 -40 45 -42 51 -38 91 10 78 -35 141 -113
161 -72 18 -107 19 -156 6z m175 -27 c62 -31 90 -75 80 -126 -4 -21 -4 -47 0
-58 4 -10 6 -36 6 -56 -1 -21 1 -38 4 -38 3 0 5 -15 6 -33 0 -17 4 -57 7 -87
4 -30 9 -75 12 -100 2 -25 7 -65 10 -90 4 -25 6 -60 6 -77 -1 -18 2 -33 6 -33
4 0 9 -21 9 -48 1 -49 8 -115 20 -192 4 -25 6 -60 5 -77 0 -18 2 -33 7 -33 4
0 7 -25 8 -55 1 -30 -1 -55 -3 -55 -3 0 -19 10 -36 23 -27 19 -44 22 -117 21
-47 0 -93 -2 -103 -5 -15 -3 -19 3 -22 36 -2 22 -8 78 -14 125 -5 47 -17 148
-25 225 -9 77 -21 179 -27 228 -15 119 -16 132 -24 212 -5 63 -12 118 -30 252
-5 38 -4 42 22 51 52 19 145 14 193 -10z m-230 -14 c0 -3 6 -60 14 -127 8 -67
17 -144 20 -172 3 -27 17 -151 32 -275 55 -484 61 -545 57 -552 -2 -5 -10 -8
-18 -8 -13 0 -228 -98 -308 -141 -21 -11 -42 -17 -47 -14 -6 3 -10 25 -10 48
0 23 -4 69 -9 102 -5 33 -14 110 -21 170 -6 61 -15 139 -20 175 -5 36 -12 94
-16 130 -5 58 -11 70 -51 118 -24 28 -55 55 -68 58 -21 5 -25 14 -30 62 -3 32
-10 88 -15 127 -5 38 -6 73 -2 77 8 8 473 226 485 227 4 1 7 -2 7 -5z m1075
-157 c84 -20 142 -48 195 -92 25 -20 46 -40 48 -44 1 -4 22 -29 47 -55 40 -43
44 -53 50 -114 3 -37 10 -89 15 -117 8 -45 9 -43 5 25 -2 41 -7 90 -11 109 -7
32 -6 33 17 25 13 -4 36 -7 51 -7 25 2 27 -1 38 -70 6 -40 13 -76 15 -82 6
-18 4 59 -4 111 l-7 52 72 34 71 35 6 -66 c4 -36 18 -165 32 -286 14 -121 32
-283 40 -360 8 -77 20 -171 25 -210 14 -105 17 -207 5 -212 -7 -2 -18 58 -30
162 -11 91 -23 165 -27 165 -3 0 -4 -17 -2 -37 3 -21 9 -67 14 -103 5 -36 12
-97 16 -137 l6 -71 -48 -21 c-26 -12 -48 -20 -50 -19 -1 2 -7 48 -13 103 -12
116 -33 301 -61 535 -10 91 -22 198 -26 238 -4 39 -10 72 -15 72 -5 0 -7 -15
-4 -32 3 -18 9 -73 15 -123 5 -49 21 -189 35 -310 33 -282 45 -389 51 -447 l4
-48 -35 0 c-21 0 -35 5 -35 13 0 6 -11 106 -25 221 -19 161 -28 211 -40 220
-17 12 -22 49 -56 361 -5 55 -12 102 -15 104 -10 10 -11 -8 -3 -69 8 -62 21
-178 35 -305 l6 -60 -36 40 c-41 46 -41 44 -56 195 -6 63 -15 147 -20 185 -5
39 -14 122 -21 185 -7 63 -16 122 -21 130 -6 10 -7 -1 -3 -30 3 -25 8 -70 11
-100 3 -30 14 -127 24 -215 10 -88 22 -189 26 -225 l6 -65 -28 26 c-47 42 -85
63 -159 89 -60 22 -87 25 -190 24 -100 -1 -133 -5 -196 -26 l-77 -25 -11 116
c-7 64 -16 145 -21 181 -6 36 -12 88 -15 115 -12 119 -18 155 -25 155 -5 0 -6
-8 -4 -17 2 -10 12 -99 24 -198 11 -99 25 -220 31 -269 5 -49 8 -89 7 -90 -2
-1 -34 -16 -72 -34 -37 -18 -70 -31 -73 -28 -2 2 -8 46 -13 97 -10 97 -13 128
-29 264 -6 44 -15 125 -21 180 -6 55 -13 108 -15 118 -3 14 13 26 72 53 42 19
77 34 79 34 2 0 4 -22 4 -50 0 -27 5 -50 10 -50 6 0 8 20 4 54 l-6 53 33 13
c109 40 271 51 374 27z m-694 -132 c0 -16 2 -39 4 -50 2 -11 13 -103 25 -205
40 -356 70 -616 80 -700 15 -127 14 -130 -15 -90 -17 23 -25 47 -25 75 0 23
-4 66 -9 96 -10 58 -32 231 -36 290 -2 20 -5 53 -9 75 -3 21 -8 66 -11 99 -3
33 -9 85 -14 115 -5 30 -10 75 -10 99 -1 25 -4 48 -6 51 -2 4 -7 43 -11 86 -3
43 -10 97 -14 119 l-9 40 30 -35 c17 -20 29 -46 30 -65z m1629 52 c44 -22 45
-23 52 -82 14 -119 30 -271 34 -310 6 -73 27 -205 32 -201 5 5 -22 270 -44
425 -8 57 -12 106 -10 108 3 3 200 -229 274 -323 29 -38 46 -104 22 -89 -6 3
-10 -4 -10 -18 0 -13 -13 -35 -28 -50 l-28 -27 -13 38 c-16 44 -60 109 -79
117 -40 15 -44 -59 -7 -131 14 -27 25 -52 25 -56 0 -5 -35 -8 -79 -8 -73 0
-85 -3 -162 -42 l-84 -43 -1 -50 c-1 -27 2 -79 7 -115 35 -275 36 -271 -14
-273 -14 -1 -24 -4 -22 -6 2 -2 -10 -15 -26 -28 -16 -14 -32 -24 -34 -21 -2 2
-16 107 -30 233 -14 127 -35 307 -45 400 -11 94 -24 208 -30 255 -26 215 -26
218 6 252 71 75 195 95 294 45z m-2510 -88 c6 -51 13 -109 16 -127 l7 -34 -39
20 c-75 38 -103 91 -79 150 13 30 74 96 82 88 1 -1 7 -45 13 -97z m995 29 c1
-7 5 -49 9 -93 4 -44 11 -105 16 -135 5 -30 12 -89 15 -130 4 -41 13 -124 21
-185 7 -60 14 -113 14 -116 0 -4 -10 -9 -21 -12 -21 -6 -21 -10 -15 -74 6 -64
31 -280 40 -350 4 -29 3 -31 -17 -24 -28 10 -47 46 -47 91 0 19 -7 85 -15 145
-8 61 -19 155 -24 210 -6 55 -15 138 -21 185 -10 81 -15 130 -40 355 -6 55
-13 111 -16 125 -4 25 -3 25 47 24 35 -2 53 -6 54 -16z m-815 -548 c6 -69 17
-168 26 -220 8 -52 15 -138 17 -190 l2 -94 -83 -43 c-46 -24 -87 -41 -91 -39
-4 3 -8 24 -9 48 -1 24 -6 72 -11 108 -5 36 -15 115 -21 175 -6 61 -15 137
-20 170 -17 114 -22 185 -12 185 18 0 161 70 169 83 10 17 20 -35 33 -183z
m2564 142 c48 -70 53 -121 10 -122 -16 0 -52 71 -60 118 -9 55 13 57 50 4z
m-2780 -114 c3 -29 15 -134 27 -233 11 -99 25 -229 32 -288 l13 -109 -31 -15
c-16 -8 -44 -26 -61 -39 l-32 -23 -5 22 c-3 12 -9 51 -13 85 -5 46 -14 72 -31
92 -22 27 -23 34 -15 81 12 61 4 97 -26 117 -19 13 -23 12 -46 -12 l-26 -25
-11 22 c-18 32 -11 133 12 182 28 59 82 120 143 161 28 19 54 34 57 34 3 0 9
-24 13 -52z m1643 -29 c92 -13 222 -72 270 -122 30 -30 32 -39 43 -147 6 -63
13 -128 15 -145 2 -16 7 -56 10 -88 l6 -57 -26 25 c-115 105 -339 146 -525 94
-41 -12 -83 -25 -92 -30 -10 -6 -18 -6 -18 -2 0 4 -5 46 -10 93 -5 47 -14 129
-19 183 -6 54 -14 109 -17 122 -5 21 0 25 58 44 117 39 192 46 305 30z m-373
-91 c3 -18 13 -97 21 -175 8 -78 18 -160 21 -183 5 -31 3 -40 -8 -40 -7 0 -32
-9 -53 -20 -22 -12 -59 -29 -82 -39 l-41 -19 -11 86 c-6 48 -16 125 -21 172
-21 191 -21 180 -2 180 10 0 49 15 87 34 39 19 73 35 77 35 4 1 10 -14 12 -31z
m1266 -174 c0 -6 7 -18 16 -25 38 -31 59 -137 40 -201 l-13 -43 -6 40 c-4 22
-9 72 -12 111 -4 39 -11 77 -16 85 -7 10 -8 2 -5 -26 3 -22 8 -65 11 -95 3
-30 8 -72 11 -93 5 -31 1 -46 -22 -80 -27 -40 -29 -41 -31 -17 -2 14 -7 57
-13 95 -14 103 -28 222 -35 289 l-6 59 40 -44 c22 -24 40 -49 41 -55z m-466
-142 c9 -70 18 -161 22 -202 5 -68 4 -73 -10 -56 -8 10 -29 34 -47 53 -33 37
-34 43 -55 243 -3 30 -10 82 -15 115 -5 33 -9 64 -9 70 0 5 22 -15 49 -44 l49
-53 16 -126z m-1202 128 c21 -6 50 -22 66 -35 26 -21 30 -34 36 -96 7 -65 11
-75 49 -117 23 -26 47 -50 52 -54 21 -16 58 -7 143 33 191 89 257 108 384 109
205 0 322 -57 463 -229 45 -55 54 -61 87 -61 57 0 184 64 205 103 21 41 89 96
119 97 7 0 14 -24 17 -57 6 -77 -5 -88 -168 -169 -127 -63 -179 -102 -170
-127 6 -17 44 -331 47 -395 l3 -53 -215 -100 -215 -100 -81 3 c-68 3 -87 7
-121 30 -40 26 -41 29 -48 98 -6 64 -11 76 -51 125 -65 79 -82 80 -235 12
-155 -70 -230 -89 -344 -90 -106 -1 -177 14 -263 56 -50 24 -83 52 -155 129
-108 117 -118 120 -243 59 -60 -29 -83 -46 -97 -72 -17 -32 -72 -78 -109 -92
-14 -5 -18 -1 -18 16 0 12 -3 45 -6 72 l-5 50 48 32 c26 18 100 57 164 87 64
30 120 59 123 65 4 5 -5 110 -19 232 -14 122 -25 228 -23 236 3 12 310 161
408 198 43 17 122 18 172 5z m-1004 -22 c13 -13 16 -95 6 -122 -5 -13 -14 -7
-40 26 -39 49 -40 55 -18 86 17 25 34 28 52 10z m427 -434 c14 -116 20 -210
16 -212 -5 -2 -46 -21 -92 -43 -45 -22 -83 -38 -85 -36 -4 4 -5 14 -24 177 -6
58 -16 134 -21 169 -6 35 -8 66 -4 69 8 8 180 89 183 87 2 -2 14 -97 27 -211z
m-362 56 c10 -113 16 -168 27 -240 10 -63 31 -352 26 -357 -4 -4 -59 -7 -97
-5 -40 2 -40 2 -54 137 -6 61 -23 204 -35 305 -5 41 -12 104 -15 140 l-6 66
55 23 c30 12 60 29 67 38 12 13 14 12 20 -8 3 -13 9 -58 12 -99z m137 48 c1
-7 12 -101 24 -208 l24 -195 -22 -17 c-29 -24 -34 -23 -39 15 l-4 32 -1 -36
c-2 -27 -9 -41 -27 -53 -24 -16 -24 -15 -29 17 -12 77 -25 177 -31 237 -3 36
-8 83 -10 105 -5 38 -3 42 47 78 56 40 68 44 68 25z m-236 -610 c6 -32 0 -34
-31 -10 -19 14 -24 33 -33 117 -6 55 -15 136 -20 180 -5 44 -14 123 -20 175
-6 52 -13 103 -16 112 -4 12 2 17 23 20 l28 3 32 -285 c17 -157 34 -297 37
-312z m-130 570 c3 -13 7 -48 10 -78 9 -106 46 -425 51 -450 5 -21 -2 -16 -37
24 -115 132 -252 304 -264 333 -39 90 61 190 193 192 36 1 43 -2 47 -21z
m2559 -331 c14 -9 20 -35 27 -107 6 -52 12 -112 14 -132 4 -34 2 -38 -35 -57
-29 -16 -41 -18 -44 -9 -2 7 -11 87 -20 178 -9 91 -18 174 -21 185 -5 16 2 13
28 -13 18 -18 41 -38 51 -45z m99 -33 c38 -20 68 -66 68 -108 0 -28 -9 -45
-43 -81 -46 -48 -67 -56 -67 -27 0 9 -7 67 -15 127 -8 61 -15 111 -15 113 0 5
42 -9 72 -24z"/>
<path d="M1207 4571 c-44 -29 -87 -90 -87 -126 0 -9 11 -27 26 -41 21 -22 31
-25 62 -19 100 18 177 140 122 195 -28 28 -68 25 -123 -9z m125 -15 c34 -51
-60 -156 -139 -156 -38 0 -53 16 -53 57 0 25 9 42 40 73 57 57 124 69 152 26z"/>
<path d="M2399 4557 c-19 -12 -43 -39 -54 -60 -20 -37 -20 -37 0 -74 29 -54
109 -93 208 -100 71 -5 77 -4 101 20 36 36 33 74 -7 133 -40 57 -119 104 -177
104 -22 0 -51 -9 -71 -23z m159 -19 c82 -39 132 -151 85 -189 -39 -33 -218 -2
-263 46 -12 13 -24 40 -27 62 -4 31 -1 42 17 58 l23 20 -17 -33 c-10 -18 -15
-39 -13 -45 2 -7 12 12 23 40 28 78 74 89 172 41z"/>
<path d="M2480 4526 c-5 -15 -10 -30 -10 -34 -1 -4 -9 -25 -20 -47 -24 -49
-27 -80 -5 -51 18 24 59 145 51 153 -3 3 -10 -6 -16 -21z"/>
<path d="M2624 4404 c-8 -20 -13 -41 -11 -47 2 -7 11 10 20 36 19 55 13 63 -9
11z"/>
<path d="M2400 4415 c-11 -13 -10 -14 4 -9 9 3 16 10 16 15 0 13 -6 11 -20 -6z"/>
<path d="M3092 4505 c0 -16 2 -22 5 -12 2 9 2 23 0 30 -3 6 -5 -1 -5 -18z"/>
<path d="M3094 4438 c14 -86 26 -180 32 -248 4 -41 8 -79 9 -85 1 -5 3 -29 3
-52 1 -24 6 -43 10 -43 7 0 -3 121 -29 348 -7 61 -17 112 -21 112 -5 0 -7 -15
-4 -32z"/>
<path d="M3152 3975 c0 -16 2 -22 5 -12 2 9 2 23 0 30 -3 6 -5 -1 -5 -18z"/>
<path d="M3162 3900 c0 -25 3 -65 7 -90 l8 -45 1 50 c1 28 -3 68 -7 90 l-9 40
0 -45z"/>
<path d="M3232 4380 c0 -14 2 -19 5 -12 2 6 2 18 0 25 -3 6 -5 1 -5 -13z"/>
<path d="M3800 4240 c0 -11 4 -20 9 -20 5 0 7 9 4 20 -3 11 -7 20 -9 20 -2 0
-4 -9 -4 -20z"/>
<path d="M3272 4025 c0 -16 2 -22 5 -12 2 9 2 23 0 30 -3 6 -5 -1 -5 -18z"/>
<path d="M3311 3674 c0 -11 3 -14 6 -6 3 7 2 16 -1 19 -3 4 -6 -2 -5 -13z"/>
<path d="M1070 4193 c0 -18 5 -33 10 -33 13 0 13 30 0 50 -7 11 -10 7 -10 -17z"/>
<path d="M1085 4100 c22 -239 59 -537 67 -525 3 6 2 35 -3 65 -8 50 -19 145
-35 315 -4 33 -12 92 -20 130 -13 66 -13 67 -9 15z"/>
<path d="M851 4064 c0 -11 3 -14 6 -6 3 7 2 16 -1 19 -3 4 -6 -2 -5 -13z"/>
<path d="M861 3974 c0 -11 3 -14 6 -6 3 7 2 16 -1 19 -3 4 -6 -2 -5 -13z"/>
<path d="M873 3910 c0 -25 2 -35 4 -22 2 12 2 32 0 45 -2 12 -4 2 -4 -23z"/>
<path d="M882 3830 c0 -19 2 -27 5 -17 2 9 2 25 0 35 -3 9 -5 1 -5 -18z"/>
<path d="M902 3630 c0 -14 2 -19 5 -12 2 6 2 18 0 25 -3 6 -5 1 -5 -13z"/>
<path d="M913 3555 c0 -22 2 -30 4 -17 2 12 2 30 0 40 -3 9 -5 -1 -4 -23z"/>
<path d="M922 3485 c0 -16 2 -22 5 -12 2 9 2 23 0 30 -3 6 -5 -1 -5 -18z"/>
<path d="M795 3420 c24 -266 58 -530 68 -530 7 0 6 18 -9 100 -5 28 -21 181
-30 280 -4 36 -13 97 -20 135 -13 66 -13 67 -9 15z"/>
<path d="M860 2840 c0 -22 3 -40 8 -40 4 0 6 18 4 40 -2 22 -6 40 -8 40 -2 0
-4 -18 -4 -40z"/>
<path d="M922 3380 c0 -14 2 -19 5 -12 2 6 2 18 0 25 -3 6 -5 1 -5 -13z"/>
<path d="M931 3314 c0 -11 3 -14 6 -6 3 7 2 16 -1 19 -3 4 -6 -2 -5 -13z"/>
<path d="M942 3230 c0 -14 2 -19 5 -12 2 6 2 18 0 25 -3 6 -5 1 -5 -13z"/>
<path d="M952 3125 c0 -16 2 -22 5 -12 2 9 2 23 0 30 -3 6 -5 -1 -5 -18z"/>
<path d="M441 3254 c0 -11 3 -14 6 -6 3 7 2 16 -1 19 -3 4 -6 -2 -5 -13z"/>
<path d="M3144 3035 c3 -22 11 -85 17 -140 11 -104 19 -136 19 -69 -1 60 -26
233 -35 242 -4 4 -5 -11 -1 -33z"/>
<path d="M3847 3342 c-24 -26 -44 -103 -52 -192 -7 -90 3 -135 31 -135 49 0
95 288 53 330 -14 14 -17 14 -32 -3z m32 -94 c0 -96 -32 -224 -54 -216 -18 6
-11 207 9 261 31 78 46 62 45 -45z"/>
<path d="M177 2773 c-25 -24 7 -165 63 -279 80 -163 181 -197 167 -56 -13 142
-181 385 -230 335z m82 -59 c85 -93 157 -268 136 -333 -10 -32 -28 -26 -75 25
-64 70 -122 202 -128 292 -3 46 -1 72 6 72 5 0 33 -25 61 -56z"/>
<path d="M226 2675 c-9 -25 5 -76 36 -137 36 -67 61 -93 84 -84 32 12 -6 138
-60 204 -30 35 -51 41 -60 17z m52 -28 c42 -44 84 -177 57 -181 -20 -2 -87
114 -93 160 -5 49 4 55 36 21z"/>
<path d="M3198 2340 c-78 -23 -170 -102 -204 -175 -34 -71 -31 -107 9 -152 30
-31 41 -37 90 -41 47 -4 66 0 111 22 75 37 148 118 170 190 22 68 15 107 -26
141 -31 26 -92 33 -150 15z m147 -30 c72 -67 -17 -242 -152 -302 -52 -23 -123
-27 -156 -9 -79 42 -61 158 38 250 96 88 213 114 270 61z"/>
<path d="M3170 2258 c-48 -25 -95 -78 -105 -118 -9 -37 27 -80 66 -80 34 0 96
29 121 57 10 10 24 35 33 55 18 44 7 80 -32 97 -32 15 -32 15 -83 -11z m94
-14 c44 -44 -17 -141 -102 -164 -38 -10 -47 -9 -63 6 -26 24 -24 61 7 101 50
65 124 92 158 57z"/>
<path d="M1543 2280 c-56 -34 -68 -81 -33 -137 43 -71 164 -117 248 -94 110
31 94 155 -29 218 -76 39 -81 35 -120 -72 -19 -52 -37 -95 -41 -95 -3 0 -18
13 -31 30 l-25 30 22 57 c19 51 26 58 52 61 41 5 56 22 19 22 -17 0 -44 -9
-62 -20z m197 -35 c59 -37 63 -46 40 -96 -21 -47 -26 -74 -11 -65 4 3 14 26
21 51 15 54 35 61 27 9 -13 -78 -61 -104 -155 -83 -85 19 -84 16 -43 123 34
90 37 95 61 89 14 -3 41 -16 60 -28z m-213 -17 c-8 -24 -12 -28 -15 -15 -2 10
2 24 8 32 19 22 20 18 7 -17z"/>
<path d="M4491 2234 c0 -11 3 -14 6 -6 3 7 2 16 -1 19 -3 4 -6 -2 -5 -13z"/>
</g>
</svg>
