<?xml version="1.0" standalone="no"?>
<!DOCTYPE svg PUBLIC "-//W3C//DTD SVG 20010904//EN"
 "http://www.w3.org/TR/2001/REC-SVG-20010904/DTD/svg10.dtd">
<svg version="1.0" xmlns="http://www.w3.org/2000/svg"
 width="300.000000pt" height="299.000000pt" viewBox="0 0 300.000000 299.000000"
 preserveAspectRatio="xMidYMid meet">
<metadata>
Created by potrace 1.10, written by Peter Selinger 2001-2011
</metadata>
<g transform="translate(0.000000,299.000000) scale(0.100000,-0.100000)"
fill="#000000" stroke="none">
<path d="M489 2901 c-148 -103 -285 -238 -400 -396 l-59 -79 0 -927 0 -927 62
-84 c121 -163 245 -284 410 -401 l67 -47 942 0 941 0 67 47 c166 117 299 248
414 407 l57 79 0 927 0 926 -61 84 c-34 46 -75 98 -90 115 -16 16 -29 33 -29
36 0 13 -193 179 -276 239 l-84 60 -939 0 -938 0 -84 -59z m2024 -2 c163 -114
292 -240 410 -401 l57 -78 0 -921 0 -921 -62 -86 c-85 -117 -262 -293 -378
-375 l-95 -67 -935 0 -935 0 -95 67 c-117 83 -295 259 -375 373 l-61 85 1 926
1 926 54 74 c114 155 244 283 405 398 l70 50 933 0 933 1 72 -51z"/>
<path d="M659 2721 c-59 -38 -395 -379 -408 -414 -30 -77 0 -164 72 -211 44
-28 69 -30 194 -10 40 6 46 3 79 -30 32 -32 36 -41 31 -73 -5 -30 -29 -60
-136 -168 -158 -159 -176 -191 -176 -315 0 -72 4 -94 26 -140 15 -30 41 -68
58 -85 17 -16 76 -78 131 -138 112 -120 118 -136 69 -192 -39 -43 -64 -50
-111 -30 -147 61 -296 -84 -234 -228 7 -18 103 -120 212 -228 168 -166 206
-199 242 -208 51 -14 102 -6 144 23 69 47 93 111 72 191 -20 76 -17 94 20 131
60 60 76 53 236 -96 168 -158 215 -184 330 -184 64 0 85 4 140 31 36 17 90 55
120 84 205 197 207 199 240 199 23 0 42 -10 67 -35 31 -31 34 -39 29 -73 -20
-115 -18 -156 6 -192 48 -70 123 -100 200 -79 36 9 74 42 241 208 109 108 205
208 213 223 8 15 14 45 14 67 0 131 -127 216 -248 166 -20 -9 -46 -14 -58 -11
-31 8 -84 72 -84 102 0 25 59 94 203 239 85 85 112 147 112 255 0 124 -18 156
-176 315 -107 108 -131 138 -136 168 -5 32 -1 41 31 73 33 33 39 36 79 30 125
-20 150 -18 194 10 72 47 102 134 72 211 -13 35 -349 376 -408 414 -80 52
-181 35 -237 -39 -34 -44 -44 -123 -22 -179 18 -45 15 -58 -25 -100 -23 -25
-39 -33 -65 -33 -30 0 -50 14 -157 115 -67 63 -125 111 -129 107 -4 -4 -6 -1
-4 6 4 15 -58 52 -123 73 -70 23 -184 9 -252 -29 -29 -17 -51 -36 -49 -44 2
-7 0 -10 -4 -6 -4 4 -62 -44 -129 -107 -107 -101 -127 -115 -157 -115 -26 0
-42 8 -67 34 -36 37 -36 38 -14 141 33 150 -136 261 -268 176z m189 -8 c69
-51 90 -128 56 -208 -19 -48 -7 -83 43 -121 56 -43 95 -36 160 28 l54 53 -28
-55 c-25 -50 -28 -65 -28 -165 0 -99 3 -116 27 -168 77 -164 265 -266 439
-238 272 44 429 331 314 574 l-22 47 53 -50 c48 -46 72 -56 114 -50 26 4 70
40 86 72 14 28 14 34 -1 75 -52 135 49 255 191 228 32 -6 69 -37 229 -193 104
-103 200 -204 213 -226 44 -78 15 -172 -68 -213 -52 -27 -93 -29 -143 -8 -53
22 -63 19 -112 -26 -65 -60 -63 -91 13 -171 53 -56 55 -59 20 -38 -45 26 -136
49 -198 50 -107 0 -224 -54 -302 -139 -122 -134 -142 -320 -51 -478 32 -55
119 -134 178 -162 129 -60 248 -53 408 27 5 2 -19 -22 -52 -55 -54 -52 -61
-64 -61 -98 0 -32 7 -45 40 -77 43 -40 74 -47 113 -27 11 7 44 12 73 12 67 0
116 -29 143 -87 49 -100 26 -141 -205 -363 -101 -98 -196 -184 -210 -191 -32
-17 -104 -18 -136 -2 -86 45 -119 130 -83 217 21 51 20 58 -26 108 -64 69
-110 61 -198 -35 l-41 -45 31 60 c115 230 -18 515 -270 575 -80 19 -202 8
-275 -24 -76 -35 -168 -126 -203 -203 -50 -108 -43 -257 15 -363 l24 -45 -48
52 c-86 91 -129 97 -193 28 -22 -24 -41 -49 -41 -54 0 -4 7 -28 15 -51 34 -96
4 -174 -83 -220 -31 -16 -104 -15 -135 2 -14 7 -108 93 -210 191 -232 222
-255 263 -206 363 27 58 76 87 143 87 29 0 62 -5 73 -12 40 -21 73 -13 114 28
32 31 39 46 39 77 0 33 -7 45 -61 97 -33 33 -57 57 -52 55 106 -52 127 -59
200 -65 134 -10 240 33 337 137 65 71 96 145 103 246 22 305 -307 525 -586
391 l-51 -24 55 58 c73 76 75 108 10 168 -49 45 -59 48 -112 26 -50 -21 -91
-19 -143 8 -76 38 -109 124 -76 200 16 37 376 398 421 422 40 21 127 15 163
-12z m682 -54 c-104 -17 -165 -31 -192 -45 -16 -8 -28 -12 -28 -9 0 8 82 48
115 56 17 4 59 7 95 7 l65 0 -55 -9z m140 -29 c22 -11 40 -23 40 -26 0 -2 -10
1 -22 7 -13 7 -43 18 -68 25 -36 10 -40 12 -17 13 15 1 46 -8 67 -19z m-64 -5
c123 -32 211 -105 265 -218 90 -194 10 -416 -186 -512 -200 -99 -435 -15 -536
190 -32 65 -34 76 -33 165 0 87 3 100 33 158 18 35 50 83 71 106 91 99 254
146 386 111z m-683 -772 c306 -144 305 -561 -2 -707 -60 -28 -75 -31 -166 -31
-91 0 -106 3 -167 32 -159 75 -236 205 -226 380 8 144 87 262 215 323 71 34
99 39 193 37 72 -3 96 -8 153 -34z m1514 -2 c50 -23 88 -50 122 -86 28 -29 52
-51 54 -48 3 2 8 -1 13 -8 4 -8 3 -10 -4 -5 -16 10 -15 6 10 -50 19 -41 23
-67 23 -154 0 -98 -2 -109 -32 -170 -61 -125 -183 -206 -325 -217 -216 -16
-398 127 -428 338 -28 190 100 376 295 430 17 4 68 7 115 6 72 -3 96 -8 157
-36z m-2052 -175 c-23 -34 -45 -122 -45 -176 0 -53 20 -131 44 -179 10 -18 14
-31 9 -28 -17 11 -53 96 -65 151 -8 44 -8 70 2 114 11 54 59 157 67 148 3 -2
-3 -16 -12 -30z m2283 -43 c46 -102 31 -252 -35 -330 l-23 -28 19 35 c55 100
63 222 22 328 -28 70 -16 66 17 -5z m-1053 -501 c208 -64 331 -265 281 -460
-28 -111 -94 -210 -163 -245 -81 -43 -145 -59 -226 -59 -78 0 -96 4 -202 48
-18 7 -19 6 -5 -12 12 -17 12 -17 0 -6 -8 7 -15 16 -15 20 0 4 -23 28 -51 54
-35 33 -62 71 -85 120 -31 66 -34 81 -34 163 0 80 4 97 32 157 86 183 284 276
468 220z m97 -742 c-13 -10 -49 -29 -80 -40 -74 -28 -193 -24 -266 8 -66 30
-55 35 19 10 99 -34 249 -20 320 28 29 20 34 16 7 -6z"/>
<path d="M1410 2606 c-159 -45 -266 -174 -277 -336 -23 -328 347 -522 612
-322 100 75 151 191 142 322 -7 101 -48 186 -127 258 -84 77 -234 110 -350 78z
m254 -34 c81 -38 149 -105 184 -180 21 -47 26 -72 26 -147 1 -78 -3 -98 -27
-150 -63 -135 -188 -215 -337 -215 -149 0 -274 80 -337 215 -24 52 -28 72 -27
150 0 109 28 179 97 249 115 115 277 145 421 78z"/>
<path d="M1436 2361 c-49 -33 -69 -74 -64 -133 5 -43 11 -57 41 -84 64 -59
136 -57 199 5 34 34 38 44 38 87 0 55 -22 95 -66 125 -38 25 -110 25 -148 0z
m134 -4 c35 -18 70 -74 70 -114 0 -94 -89 -153 -178 -117 -70 27 -102 109 -69
174 29 58 118 87 177 57z"/>
<path d="M1480 2272 c0 -4 9 -13 20 -19 20 -13 50 -8 50 9 0 5 -4 7 -9 4 -5
-4 -21 -2 -35 4 -14 5 -26 6 -26 2z"/>
<path d="M1481 2226 c-9 -10 -8 -16 4 -26 9 -7 15 -8 15 -2 0 6 3 17 6 26 8
20 -9 21 -25 2z"/>
<path d="M683 1870 c-201 -42 -343 -243 -304 -432 26 -125 100 -222 214 -278
161 -79 359 -31 469 115 52 69 72 133 72 230 -1 117 -44 205 -139 284 -83 68
-211 102 -312 81z m178 -21 c116 -37 206 -121 245 -231 23 -64 20 -181 -6
-250 -43 -116 -157 -206 -289 -229 -151 -27 -314 56 -386 197 -28 55 -30 67
-30 164 0 91 4 111 24 150 52 99 118 158 214 191 59 21 176 25 228 8z"/>
<path d="M690 1622 c-48 -26 -82 -86 -76 -135 9 -82 70 -130 154 -124 172 13
173 256 1 274 -31 3 -54 -1 -79 -15z m127 -12 c45 -27 66 -64 66 -114 0 -148
-211 -171 -253 -28 -30 105 94 199 187 142z"/>
<path d="M734 1521 c20 -22 60 -28 71 -11 4 6 -5 10 -20 10 -15 0 -36 5 -48
11 -22 12 -22 12 -3 -10z"/>
<path d="M726 1481 c-4 -5 -3 -17 0 -26 5 -13 8 -14 15 -3 5 7 9 19 9 26 0 14
-16 16 -24 3z"/>
<path d="M2175 1866 c-206 -51 -339 -271 -281 -464 36 -117 128 -216 239 -258
37 -13 77 -19 137 -19 75 1 93 5 153 33 239 116 296 423 111 605 -51 51 -107
82 -184 102 -65 17 -107 18 -175 1z m253 -40 c68 -34 133 -99 169 -168 26 -48
28 -62 28 -158 0 -97 -2 -110 -30 -163 -116 -230 -430 -272 -604 -82 -102 112
-123 255 -60 402 34 79 144 170 234 194 17 5 71 7 120 5 74 -2 99 -8 143 -30z"/>
<path d="M2200 1622 c-101 -56 -105 -182 -8 -243 26 -16 45 -19 87 -16 47 3
59 9 87 40 43 46 52 96 28 148 -34 77 -124 110 -194 71z m137 -18 c35 -22 56
-61 56 -103 0 -145 -197 -182 -248 -46 -14 35 -15 50 -6 78 28 84 125 119 198
71z"/>
<path d="M2249 1517 c15 -19 56 -23 66 -7 3 6 -5 10 -19 10 -13 0 -33 3 -43 7
-16 6 -16 5 -4 -10z"/>
<path d="M2228 1477 c-15 -12 -15 -14 4 -26 11 -7 17 -8 14 -2 -4 5 -2 12 4
16 12 7 14 25 3 25 -5 0 -16 -6 -25 -13z"/>
<path d="M1415 1121 c-157 -41 -271 -180 -282 -341 -15 -213 137 -384 353
-397 183 -12 330 88 389 266 40 121 1 273 -93 368 -69 69 -156 106 -257 109
-44 2 -93 0 -110 -5z m193 -15 c108 -29 193 -101 240 -205 35 -78 37 -201 4
-283 -32 -80 -99 -150 -180 -190 -61 -30 -75 -33 -162 -33 -82 0 -103 4 -152
27 -80 37 -149 105 -184 181 -25 54 -29 74 -29 152 1 111 28 179 105 255 95
96 226 131 358 96z"/>
<path d="M1466 885 c-45 -16 -63 -31 -82 -66 -36 -71 -4 -157 71 -190 58 -26
106 -17 153 26 28 26 35 40 39 81 8 82 -31 136 -110 154 -22 4 -48 3 -71 -5z
m141 -49 c77 -84 14 -212 -103 -208 -105 4 -163 125 -97 202 35 42 58 51 117
46 42 -3 55 -9 83 -40z"/>
<path d="M1493 775 c5 -14 57 -19 69 -7 6 6 -5 11 -31 14 -25 2 -40 0 -38 -7z"/>
<path d="M1481 736 c-9 -10 -8 -15 3 -19 16 -7 26 1 26 20 0 17 -14 17 -29 -1z"/>
</g>
</svg>
