<?xml version="1.0" standalone="no"?>
<!DOCTYPE svg PUBLIC "-//W3C//DTD SVG 20010904//EN"
 "http://www.w3.org/TR/2001/REC-SVG-20010904/DTD/svg10.dtd">
<svg version="1.0" xmlns="http://www.w3.org/2000/svg"
 width="286.000000pt" height="179.000000pt" viewBox="0 0 286.000000 179.000000"
 preserveAspectRatio="xMidYMid meet">
<metadata>
Created by potrace 1.10, written by Peter Selinger 2001-2011
</metadata>
<g transform="translate(0.000000,179.000000) scale(0.100000,-0.100000)"
fill="#000000" stroke="none">
<path d="M541 1694 c-2 -84 10 -144 27 -144 12 0 14 13 10 76 -3 42 -10 79
-15 83 -6 3 -13 13 -16 21 -3 8 -6 -8 -6 -36z"/>
<path d="M2195 1554 c-55 -8 -108 -15 -117 -16 -10 -1 -18 -6 -18 -11 0 -5 7
-6 16 -3 9 4 24 1 32 -6 13 -11 14 -11 7 1 -6 11 -1 13 23 9 18 -2 28 0 25 5
-3 5 3 6 15 3 12 -4 31 -2 42 4 16 9 25 8 36 -1 11 -9 14 -9 14 0 0 8 8 10 21
6 15 -5 19 -4 15 4 -5 7 1 11 14 11 13 0 19 -4 14 -12 -5 -8 0 -9 15 -5 14 3
21 1 18 -6 -2 -7 -36 -15 -77 -19 -104 -11 -102 -22 3 -15 72 4 91 2 104 -11
23 -23 43 -76 45 -119 1 -37 1 -37 5 -5 2 17 8 32 14 32 9 0 13 -14 10 -37 -1
-6 2 -14 7 -17 14 -9 14 81 -1 117 -19 45 -64 90 -71 71 -3 -8 -11 -14 -18
-14 -9 0 -8 3 2 10 13 9 13 10 0 10 -12 0 -12 2 -2 9 10 6 8 10 -10 14 -31 9
-64 7 -183 -9z m244 -53 c13 -11 20 -25 16 -30 -3 -6 -1 -11 4 -11 6 0 11 -9
11 -20 0 -11 -4 -20 -10 -20 -5 0 -10 9 -10 20 0 11 -5 20 -11 20 -5 0 -8 4
-5 9 3 5 -1 14 -9 21 -13 11 -21 30 -12 30 2 0 14 -9 26 -19z"/>
<path d="M309 1537 c-59 -23 -89 -43 -89 -59 0 -5 14 1 32 13 18 13 45 22 64
22 24 -1 34 5 43 23 6 13 10 24 8 23 -1 0 -27 -10 -58 -22z"/>
<path d="M519 1545 c-3 -2 -72 -25 -154 -51 -83 -25 -152 -48 -154 -50 -16
-16 24 -7 157 31 84 25 157 45 161 45 22 0 31 -86 41 -405 6 -187 15 -384 20
-439 6 -54 10 -129 10 -168 0 -61 2 -69 18 -64 9 2 107 10 217 16 110 6 214
13 231 16 31 4 31 4 23 52 -11 67 -11 132 1 132 6 0 10 -12 10 -26 l0 -27 78
6 c42 3 84 2 92 -3 14 -9 -25 -13 -142 -14 -26 -1 -28 -4 -28 -45 l0 -43 53 6
c28 3 176 13 327 21 151 9 294 18 318 21 l42 5 0 75 0 75 53 -6 c28 -3 47 -3
40 1 -9 4 -7 14 6 38 17 30 18 53 11 347 -5 224 -11 322 -20 339 -24 47 -42
60 -84 61 -31 0 -36 2 -21 8 41 16 77 22 70 11 -4 -6 9 -10 34 -10 32 0 39 3
37 18 -3 20 -25 19 -155 -4 -46 -8 -112 -15 -145 -14 -34 1 -74 1 -91 -1 -42
-3 123 -17 217 -18 l78 -1 25 -38 c25 -38 25 -39 32 -349 5 -237 3 -312 -6
-317 -9 -6 -9 -11 0 -22 9 -11 8 -15 -2 -18 -12 -4 -153 -15 -199 -16 -13 0
-13 -1 0 -10 11 -7 4 -9 -25 -8 -22 1 -161 -4 -308 -12 -232 -12 -270 -12
-278 1 -7 11 -9 11 -9 -3 0 -17 -16 -18 -192 -18 -204 0 -257 8 -292 43 -20
21 -22 34 -25 202 -6 361 -17 558 -34 598 -15 34 -27 44 -38 32z m1428 -31
c-3 -3 -12 -4 -19 -1 -8 3 -5 6 6 6 11 1 17 -2 13 -5z m-186 -836 c0 -10 2
-10 6 0 2 6 16 12 29 12 22 0 24 -4 24 -54 0 -50 -2 -54 -26 -60 -19 -5 -30
-2 -40 11 -10 12 -13 13 -12 4 2 -11 -12 -15 -54 -18 -36 -2 -58 0 -58 7 0 5
-5 10 -11 10 -6 0 -9 -6 -6 -14 6 -14 -68 -21 -323 -30 l-135 -5 180 15 c98 8
183 18 187 22 10 10 -320 -6 -362 -18 -25 -7 -36 -6 -42 3 -9 14 -11 14 139
26 61 5 119 14 130 20 14 8 9 10 -26 7 -25 -1 -67 4 -94 12 -26 7 -68 12 -92
10 -24 -1 -41 0 -39 4 2 3 -4 9 -13 12 -19 6 149 -1 207 -9 29 -4 31 -3 10 4
-28 10 -29 10 93 17 59 4 87 2 87 -5 0 -7 -28 -12 -72 -13 l-73 -2 60 -3 c70
-5 109 3 99 19 -5 7 1 9 20 4 20 -5 26 -3 21 5 -5 7 -1 9 11 6 11 -4 35 -2 54
2 55 14 120 13 121 -1z m-1034 -38 c12 0 25 -4 28 -10 7 -11 164 -12 242 -1
51 7 85 0 70 -15 -4 -4 -37 -7 -74 -6 -59 1 -65 0 -43 -10 24 -11 23 -12 -20
-19 -25 -3 -3 -4 48 -2 54 3 92 1 92 -5 0 -10 -75 -18 -275 -28 -69 -4 -122
-10 -116 -13 9 -6 211 2 329 14 57 5 62 4 62 -14 0 -11 -5 -23 -12 -27 -7 -5
-9 -2 -4 7 5 8 2 8 -6 -2 -9 -11 -38 -18 -95 -22 -77 -6 -101 1 -71 19 7 5 8
3 3 -6 -5 -9 -2 -10 14 -5 12 4 42 8 67 10 70 4 62 12 -16 13 -52 1 -78 -3
-102 -18 -24 -14 -52 -19 -103 -19 -38 0 -83 -3 -100 -7 -29 -6 -29 -6 -10 11
11 9 15 14 8 11 -18 -9 -22 18 -4 32 9 8 11 11 4 8 -17 -9 -28 15 -12 25 8 5
9 9 3 9 -6 0 -11 16 -12 35 -1 20 -4 40 -7 45 -9 15 18 17 54 4 20 -7 46 -13
58 -14z m232 5 c-11 -10 -199 -18 -199 -8 0 6 44 11 102 12 56 1 99 -1 97 -4z
m69 -52 c-10 -2 -26 -2 -35 0 -10 3 -2 5 17 5 19 0 27 -2 18 -5z"/>
<path d="M1741 654 c0 -11 3 -14 6 -6 3 7 2 16 -1 19 -3 4 -6 -2 -5 -13z"/>
<path d="M1585 630 c3 -5 8 -10 11 -10 2 0 4 5 4 10 0 6 -5 10 -11 10 -5 0 -7
-4 -4 -10z"/>
<path d="M1568 573 c6 -2 18 -2 25 0 6 3 1 5 -13 5 -14 0 -19 -2 -12 -5z"/>
<path d="M768 593 c28 -2 76 -2 105 0 28 2 5 3 -53 3 -58 0 -81 -1 -52 -3z"/>
<path d="M813 573 c9 -2 23 -2 30 0 6 3 -1 5 -18 5 -16 0 -22 -2 -12 -5z"/>
<path d="M728 563 c6 -2 18 -2 25 0 6 3 1 5 -13 5 -14 0 -19 -2 -12 -5z"/>
<path d="M710 500 c-9 -6 -10 -10 -3 -10 6 0 15 5 18 10 8 12 4 12 -15 0z"/>
<path d="M768 503 c7 -3 16 -2 19 1 4 3 -2 6 -13 5 -11 0 -14 -3 -6 -6z"/>
<path d="M2460 1545 c0 -3 14 -20 31 -37 28 -30 30 -31 19 -7 -10 22 -50 57
-50 44z"/>
<path d="M2020 1530 c0 -5 -7 -10 -15 -10 -8 0 -15 -7 -15 -15 0 -8 9 -15 20
-15 13 0 20 7 20 19 0 11 6 22 13 24 7 3 5 6 -5 6 -10 1 -18 -3 -18 -9z"/>
<path d="M1040 1526 c0 -10 28 -13 41 -5 10 6 7 9 -13 9 -16 0 -28 -2 -28 -4z"/>
<path d="M1430 1510 c-12 -7 -10 -9 7 -7 12 0 19 5 17 9 -6 10 -6 10 -24 -2z"/>
<path d="M1516 1505 c4 -8 11 -15 16 -15 6 0 5 6 -2 15 -7 8 -14 15 -16 15 -2
0 -1 -7 2 -15z"/>
<path d="M2050 1499 c0 -8 81 -14 117 -10 7 1 26 -5 43 -14 16 -8 30 -11 30
-6 0 5 -15 14 -32 19 -46 14 -158 22 -158 11z"/>
<path d="M1418 1483 c7 -3 16 -2 19 1 4 3 -2 6 -13 5 -11 0 -14 -3 -6 -6z"/>
<path d="M1479 1463 c10 -16 21 -45 24 -66 l6 -37 -203 7 -203 6 9 -64 c5 -35
19 -155 32 -267 31 -269 18 -254 223 -250 l153 3 0 -27 c0 -16 5 -28 12 -28 8
0 10 74 5 294 -4 162 -9 301 -12 308 -5 12 3 13 37 9 l43 -6 2 -228 c1 -126 4
-231 7 -234 3 -4 6 73 6 170 0 98 1 177 3 178 1 0 51 3 111 6 l108 5 -7 -178
c-4 -99 -11 -189 -16 -202 -13 -33 -48 -42 -165 -42 -63 0 -104 -4 -104 -10 0
-6 45 -10 115 -10 128 0 179 14 195 52 5 13 15 129 22 259 l13 236 -104 7
c-57 3 -139 6 -181 6 l-78 0 -7 37 c-9 51 -32 93 -51 93 -12 0 -11 -5 5 -27z
m34 -240 c4 -71 7 -191 7 -269 l0 -141 -40 -1 -40 -2 0 83 c0 48 -4 77 -9 69
-4 -8 -6 -45 -3 -83 l5 -69 -42 0 c-41 0 -41 0 -36 32 3 17 14 37 23 44 15 12
14 13 -14 14 -43 0 -67 -21 -66 -59 1 -26 -3 -31 -22 -31 -54 0 -58 11 -87
261 -15 129 -28 244 -28 257 -1 22 -1 22 172 22 l174 0 6 -127z m332 73 l0
-38 -103 0 c-56 1 -107 4 -112 7 -6 4 -10 22 -10 41 l0 35 113 -3 112 -3 0
-39z m-696 -40 c2 -45 -6 -27 -12 29 -4 34 -3 42 3 25 4 -14 8 -38 9 -54z
m718 2 c-3 -8 -6 -5 -6 6 -1 11 2 17 5 13 3 -3 4 -12 1 -19z m-704 -133 c4
-27 3 -35 -3 -25 -5 8 -10 28 -10 44 0 39 6 30 13 -19z m17 -110 c0 -8 -2 -15
-4 -15 -2 0 -6 7 -10 15 -3 8 -1 15 4 15 6 0 10 -7 10 -15z m9 -114 c2 -54 -6
-32 -12 34 -4 39 -3 50 2 30 5 -16 9 -45 10 -64z"/>
<path d="M1420 1291 c0 -44 -3 -51 -17 -49 -12 2 -20 15 -24 38 l-6 35 -2 -42
c-1 -40 1 -43 24 -43 l25 0 0 -112 c0 -62 5 -120 10 -128 7 -10 9 41 5 164 -3
99 -7 182 -10 184 -3 3 -5 -18 -5 -47z"/>
<path d="M1320 1310 c0 -5 5 -10 10 -10 6 0 10 5 10 10 0 6 -4 10 -10 10 -5 0
-10 -4 -10 -10z"/>
<path d="M1289 1265 c-6 -29 -2 -42 24 -64 15 -13 39 -45 52 -72 14 -26 29
-50 35 -54 15 -9 0 23 -37 82 -18 29 -33 57 -33 62 0 6 -6 14 -14 18 -7 4 -16
15 -19 23 -3 8 -6 11 -8 5z"/>
<path d="M1456 1219 c-8 -41 -6 -137 3 -169 5 -15 7 4 5 46 -2 42 2 80 9 95
13 25 12 59 -2 59 -5 0 -11 -14 -15 -31z"/>
<path d="M1494 1090 c0 -58 1 -81 3 -52 2 28 2 76 0 105 -2 28 -3 5 -3 -53z"/>
<path d="M1352 1073 c-12 -2 -20 -9 -17 -14 9 -14 32 -11 39 6 3 8 4 14 3 14
-1 -1 -12 -4 -25 -6z"/>
<path d="M1290 1060 c19 -13 30 -13 30 0 0 6 -10 10 -22 10 -19 0 -20 -2 -8
-10z"/>
<path d="M1250 1042 c0 -17 40 -24 75 -12 28 9 28 10 -12 6 -22 -2 -46 1 -52
7 -8 8 -11 8 -11 -1z"/>
<path d="M1372 1041 c-10 -6 -7 -10 12 -13 16 -3 25 -1 23 5 -5 15 -20 18 -35
8z"/>
<path d="M1370 985 c0 -9 9 -15 25 -15 18 0 23 4 19 15 -4 8 -15 15 -25 15
-10 0 -19 -7 -19 -15z"/>
<path d="M1492 950 c0 -14 2 -19 5 -12 2 6 2 18 0 25 -3 6 -5 1 -5 -13z"/>
<path d="M1456 915 c6 -44 26 -71 43 -61 6 4 11 15 11 24 0 14 -2 14 -13 -2
-12 -17 -15 -14 -30 30 -17 49 -17 49 -11 9z"/>
<path d="M1237 893 c-4 -3 -2 -12 4 -20 9 -10 8 -13 0 -13 -7 0 -9 -4 -6 -10
3 -5 13 -10 20 -10 11 0 12 6 5 24 -5 13 -6 27 -3 30 4 3 2 6 -4 6 -5 0 -13
-3 -16 -7z"/>
<path d="M2524 1457 c3 -10 6 -34 6 -53 0 -19 4 -34 9 -34 11 0 3 69 -11 90
-8 12 -8 11 -4 -3z"/>
<path d="M1090 1450 c-12 -8 -9 -10 13 -10 16 0 26 4 22 10 -8 12 -16 12 -35
0z"/>
<path d="M1178 1443 c6 -2 18 -2 25 0 6 3 1 5 -13 5 -14 0 -19 -2 -12 -5z"/>
<path d="M1241 1446 c2 -2 51 -7 108 -11 73 -5 101 -4 97 4 -5 7 -46 11 -108
11 -56 0 -99 -2 -97 -4z"/>
<path d="M435 1425 c-27 -7 -63 -16 -79 -19 -15 -4 -26 -9 -23 -12 6 -6 187
35 187 42 0 7 -34 3 -85 -11z"/>
<path d="M610 1428 c0 -11 22 -10 39 1 10 7 7 9 -12 8 -15 -1 -27 -5 -27 -9z"/>
<path d="M1541 1436 c7 -7 229 -9 236 -2 4 3 -49 6 -117 6 -68 0 -121 -2 -119
-4z"/>
<path d="M802 1425 c9 -9 101 -12 128 -4 16 4 -5 7 -54 8 -44 1 -77 -1 -74 -4z"/>
<path d="M1010 1420 c0 -5 12 -10 28 -10 21 0 24 2 12 10 -20 13 -40 13 -40 0z"/>
<path d="M1803 1423 c9 -2 23 -2 30 0 6 3 -1 5 -18 5 -16 0 -22 -2 -12 -5z"/>
<path d="M1850 1419 c0 -5 5 -7 10 -4 6 3 10 8 10 11 0 2 -4 4 -10 4 -5 0 -10
-5 -10 -11z"/>
<path d="M1118 1413 c18 -2 45 -2 60 0 15 2 0 4 -33 4 -33 0 -45 -2 -27 -4z"/>
<path d="M1248 1413 c6 -2 18 -2 25 0 6 3 1 5 -13 5 -14 0 -19 -2 -12 -5z"/>
<path d="M214 1388 c4 -20 14 -484 17 -808 1 -105 8 -130 36 -130 12 0 13 3 4
14 -7 9 -14 66 -17 142 -3 70 -7 131 -10 136 -6 9 41 0 66 -13 9 -4 47 -18 85
-32 39 -14 94 -34 123 -46 28 -11 52 -17 52 -13 0 5 -55 28 -122 52 -68 24
-142 52 -164 61 l-41 17 -2 289 c-1 158 -4 298 -8 311 -3 15 -1 22 8 22 11 0
11 3 -1 10 -24 15 -31 12 -26 -12z"/>
<path d="M1361 1406 c7 -7 108 -11 114 -4 3 3 -23 6 -57 7 -34 1 -60 0 -57 -3z"/>
<path d="M1788 1393 c12 -2 32 -2 45 0 12 2 2 4 -23 4 -25 0 -35 -2 -22 -4z"/>
<path d="M1868 1393 c7 -3 16 -2 19 1 4 3 -2 6 -13 5 -11 0 -14 -3 -6 -6z"/>
<path d="M1975 1393 c11 -2 26 -12 33 -21 11 -14 12 -14 13 4 0 18 1 18 10 -1
9 -19 9 -19 6 0 -2 15 -11 20 -42 21 -22 2 -31 0 -20 -3z"/>
<path d="M2076 1392 c-3 -4 4 -9 15 -9 23 -2 25 3 4 10 -8 4 -16 3 -19 -1z"/>
<path d="M670 1360 c28 -23 46 -28 114 -33 45 -3 82 -5 83 -3 1 1 -12 13 -30
27 -27 22 -45 27 -116 31 l-84 5 33 -27z m115 -10 c14 -7 8 -8 -20 -3 -22 3
-42 7 -44 9 -9 8 45 2 64 -6z"/>
<path d="M854 1379 c-2 -4 1 -11 7 -15 8 -5 9 -3 4 6 -6 9 -4 12 6 8 8 -3 23
-2 34 2 16 6 13 8 -13 7 -18 0 -35 -4 -38 -8z"/>
<path d="M950 1375 c20 -26 63 -64 73 -65 14 0 -2 17 -46 52 -23 18 -35 24
-27 13z"/>
<path d="M2120 1382 c0 -4 21 -5 47 -3 44 3 46 2 30 -14 -24 -23 -21 -32 3
-10 11 10 17 22 14 26 -6 11 -94 12 -94 1z"/>
<path d="M500 1370 c0 -5 5 -10 10 -10 6 0 10 5 10 10 0 6 -4 10 -10 10 -5 0
-10 -4 -10 -10z"/>
<path d="M2307 1365 c3 -8 9 -12 14 -9 12 7 11 11 -5 17 -10 4 -13 1 -9 -8z"/>
<path d="M890 1349 c0 -5 14 -9 30 -9 17 0 30 4 30 8 0 5 -13 9 -30 10 -16 0
-30 -4 -30 -9z"/>
<path d="M330 1340 c0 -5 5 -10 10 -10 6 0 10 5 10 10 0 6 -4 10 -10 10 -5 0
-10 -4 -10 -10z"/>
<path d="M640 1341 c0 -5 7 -12 16 -15 14 -5 15 -4 4 9 -14 17 -20 19 -20 6z"/>
<path d="M2080 1334 c0 -18 7 -21 45 -22 25 -1 45 2 45 8 0 5 -15 10 -33 10
-18 0 -38 5 -45 12 -9 9 -12 7 -12 -8z"/>
<path d="M2217 1332 c-14 -15 -18 -46 -20 -163 l-3 -144 -63 -82 c-36 -46 -61
-88 -58 -96 6 -17 59 -25 240 -33 132 -7 139 -6 153 14 8 11 39 33 69 48 31
15 54 29 51 31 -2 2 -18 -3 -35 -11 -38 -20 -47 -20 -31 -1 7 8 9 15 4 15 -5
0 -22 -19 -38 -41 l-28 -40 -157 6 c-86 3 -172 10 -191 14 -21 5 16 7 97 3
105 -4 136 -2 150 9 11 9 14 10 9 2 -5 -10 4 -13 36 -13 40 0 45 3 68 41 14
22 24 47 22 56 -2 8 1 12 7 9 6 -4 21 10 35 31 21 34 25 53 31 186 l6 147 -78
1 c-87 2 -127 1 -223 -6 -62 -4 -63 -3 -28 8 49 16 58 27 21 27 -16 0 -37 -8
-46 -18z m323 -54 c0 -6 -13 -8 -31 -4 -17 3 -43 7 -58 8 -15 0 -7 4 19 7 50
7 70 4 70 -11z m-160 1 c0 -5 -31 -9 -70 -9 -39 0 -71 -4 -71 -10 -1 -5 -2
-14 -3 -19 -3 -27 -16 -19 -16 10 l0 34 80 1 c44 1 80 -2 80 -7z m115 -84 c-5
-65 -4 -74 10 -69 8 3 15 2 15 -4 0 -6 -52 -11 -134 -11 l-134 -2 -1 75 -1 75
117 4 c65 1 122 4 126 5 5 1 6 -32 2 -73z m38 58 c-8 -3 -13 -25 -13 -59 0
-31 -3 -53 -7 -51 -5 3 -6 30 -5 61 3 45 7 56 20 55 11 0 12 -2 5 -6z m-299
-139 c-8 -31 15 -82 28 -62 6 10 10 10 19 -2 9 -13 10 -12 5 3 -3 9 -3 17 1
17 3 0 12 -8 19 -17 10 -15 15 -16 26 -5 11 11 10 12 -4 7 -10 -4 -18 -3 -18
2 0 8 48 9 133 4 10 -1 16 -4 13 -9 -2 -4 10 -7 27 -6 49 2 50 3 37 19 -13 16
-35 21 -25 6 3 -5 1 -12 -5 -16 -12 -7 -13 15 -2 31 12 18 42 12 42 -8 0 -11
4 -16 10 -13 13 8 0 -28 -14 -37 -7 -5 -6 -8 4 -9 10 0 8 -3 -5 -8 -24 -10
-43 -2 -24 10 10 6 7 8 -9 6 -26 -2 -28 -15 -5 -33 16 -11 15 -13 -11 -20 -19
-5 -31 -2 -37 7 -6 10 -11 11 -16 3 -10 -14 -115 -13 -126 1 -6 7 -10 6 -14
-2 -2 -7 -9 -13 -14 -13 -6 0 -5 9 1 21 8 13 15 17 23 11 7 -5 42 -8 79 -6 37
1 70 -2 73 -7 8 -12 25 -12 25 1 0 6 -7 10 -16 10 -14 0 -14 3 -4 15 9 10 9
15 1 15 -6 0 -11 -4 -11 -9 0 -5 -15 -9 -34 -8 -19 0 -33 5 -30 9 4 7 -26 5
-46 -2 -14 -6 -36 -4 -46 2 -6 4 -25 6 -42 3 -27 -3 -31 -1 -23 12 4 9 6 35 3
59 -3 29 -1 44 7 44 7 0 9 -9 5 -26z m26 -18 c0 -3 -4 -8 -10 -11 -5 -3 -10
-1 -10 4 0 6 5 11 10 11 6 0 10 -2 10 -4z m57 -2 c-3 -3 -12 -4 -19 -1 -8 3
-5 6 6 6 11 1 17 -2 13 -5z m46 -1 c-7 -2 -19 -2 -25 0 -7 3 -2 5 12 5 14 0
19 -2 13 -5z m100 0 c-13 -2 -33 -2 -45 0 -13 2 -3 4 22 4 25 0 35 -2 23 -4z
m-205 -102 c-14 -23 -28 -28 -28 -8 0 8 -3 7 -10 -3 -5 -8 -12 -11 -16 -7 -10
10 17 39 32 33 7 -3 16 -1 20 5 3 6 8 8 11 6 2 -3 -2 -14 -9 -26z m-71 -26
c-7 -17 9 -30 18 -15 3 5 13 10 21 10 8 0 12 -4 9 -10 -3 -5 -1 -10 4 -10 6 0
11 6 12 13 0 10 2 10 6 0 2 -7 14 -13 26 -12 21 0 21 1 2 9 -19 8 -19 9 3 9
12 1 22 -4 22 -10 0 -8 4 -8 13 0 10 8 17 7 25 -1 8 -8 19 -8 42 2 17 7 33 10
36 7 9 -9 -6 -28 -17 -22 -5 3 -6 0 -3 -8 3 -8 0 -18 -7 -23 -8 -4 -10 -3 -5
4 4 7 2 12 -4 12 -7 0 -9 -8 -5 -21 7 -20 4 -20 -114 -14 -76 4 -121 3 -121
-3 0 -6 -9 -8 -20 -5 -26 7 -16 23 14 23 13 0 30 7 37 16 11 13 10 17 -4 25
-14 8 -15 13 -4 24 16 18 21 19 14 0z m293 -26 c0 -5 -13 -17 -30 -27 -24 -15
-27 -21 -17 -32 8 -9 9 -11 0 -6 -6 3 -14 2 -18 -4 -3 -5 -11 -10 -16 -10 -6
0 -2 14 8 30 16 28 26 34 46 31 4 0 7 4 7 9 0 6 -4 10 -10 10 -5 0 -10 4 -10
9 0 5 9 7 20 4 11 -3 20 -9 20 -14z m-315 -19 c-3 -5 -10 -10 -16 -10 -5 0 -9
5 -9 10 0 6 7 10 16 10 8 0 12 -4 9 -10z m143 -57 c-26 -2 -71 -2 -100 0 -29
2 -8 3 47 3 55 0 79 -1 53 -3z"/>
<path d="M2302 1199 c-1 -22 -4 -44 -6 -47 -2 -4 36 -6 85 -4 l89 3 0 45 0 44
-83 0 -84 0 -1 -41z m82 19 c-5 -8 2 -9 24 -5 24 5 32 3 32 -8 0 -10 -10 -15
-30 -15 -21 0 -30 -5 -30 -16 0 -11 -6 -14 -22 -9 -35 11 -42 22 -25 39 12 12
17 13 20 3 3 -7 6 -5 6 6 1 9 8 17 17 17 9 0 12 -5 8 -12z"/>
<path d="M2273 1195 c0 -22 2 -30 4 -17 2 12 2 30 0 40 -3 9 -5 -1 -4 -23z"/>
<path d="M2380 1051 c0 -6 4 -13 10 -16 6 -3 7 1 4 9 -7 18 -14 21 -14 7z"/>
<path d="M2334 943 c3 -6 -1 -16 -10 -21 -10 -5 -12 -12 -6 -16 5 -3 15 1 22
10 11 12 11 17 0 27 -10 9 -11 9 -6 0z"/>
<path d="M2218 913 c6 -2 18 -2 25 0 6 3 1 5 -13 5 -14 0 -19 -2 -12 -5z"/>
<path d="M2265 910 c3 -5 8 -10 11 -10 2 0 4 5 4 10 0 6 -5 10 -11 10 -5 0 -7
-4 -4 -10z"/>
<path d="M2017 1333 c-4 -3 -7 -11 -7 -17 0 -6 5 -5 12 2 6 6 9 14 7 17 -3 3
-9 2 -12 -2z"/>
<path d="M967 1319 c7 -7 15 -10 18 -7 3 3 -2 9 -12 12 -14 6 -15 5 -6 -5z"/>
<path d="M2055 1320 c-3 -5 -1 -10 4 -10 6 0 11 5 11 10 0 6 -2 10 -4 10 -3 0
-8 -4 -11 -10z"/>
<path d="M1091 1224 c0 -11 3 -14 6 -6 3 7 2 16 -1 19 -3 4 -6 -2 -5 -13z"/>
<path d="M1540 1229 c0 -6 7 -17 15 -25 12 -12 15 -44 15 -155 0 -86 4 -138
10 -134 12 7 2 261 -12 298 -10 27 -28 37 -28 16z"/>
<path d="M2584 1135 c0 -55 1 -76 3 -47 2 29 2 74 0 100 -2 26 -3 2 -3 -53z"/>
<path d="M1802 1160 c4 -65 16 -65 16 0 0 28 -4 50 -9 50 -5 0 -8 -22 -7 -50z"/>
<path d="M1095 960 c4 -124 10 -228 14 -231 3 -3 17 -3 31 1 l25 6 -27 7 c-28
7 -28 7 -28 100 -1 119 -11 331 -17 337 -3 3 -2 -96 2 -220z"/>
<path d="M1710 1104 c0 -10 -6 -14 -14 -11 -18 7 -25 -32 -15 -79 5 -24 3 -31
-9 -30 -8 0 -17 -5 -20 -13 -4 -11 5 -13 49 -7 30 4 56 11 57 17 2 5 10 9 18
9 8 0 14 5 14 11 0 6 -9 9 -20 6 -10 -3 -21 0 -24 7 -2 6 -5 1 -5 -11 -1 -15
-7 -23 -18 -22 -11 0 -13 3 -5 6 13 5 17 24 5 22 -25 -4 -33 4 -33 31 0 17 5
31 10 31 6 1 28 2 49 3 46 1 65 14 33 23 -12 3 -22 9 -22 14 0 5 -11 9 -25 9
-16 0 -25 -6 -25 -16z"/>
<path d="M1715 1060 c4 -6 2 -17 -4 -24 -8 -9 -7 -13 4 -13 9 0 15 10 15 24 0
13 -5 23 -11 23 -5 0 -7 -5 -4 -10z"/>
<path d="M1765 1040 c3 -5 15 -10 26 -10 10 0 19 5 19 10 0 6 -12 10 -26 10
-14 0 -23 -4 -19 -10z"/>
<path d="M2638 1030 c-15 -4 -28 -6 -30 -4 -2 2 -4 -5 -5 -16 -1 -16 2 -17 27
-8 16 5 34 16 41 24 13 15 7 16 -33 4z"/>
<path d="M2660 999 c-27 -30 -37 -36 -48 -27 -11 9 -12 7 -7 -15 8 -31 3 -34
-21 -10 -22 23 -47 26 -40 6 4 -11 2 -13 -9 -9 -9 3 -15 0 -15 -9 0 -11 12
-15 43 -15 24 0 48 -5 53 -10 12 -12 64 6 64 23 0 5 -10 2 -23 -6 -14 -9 -29
-12 -37 -7 -14 9 11 26 64 45 41 14 49 40 10 32 -27 -6 -27 -6 -6 5 22 11 28
23 15 31 -5 3 -24 -12 -43 -34z"/>
<path d="M2570 998 c-12 -22 -12 -22 6 -6 10 10 15 20 12 24 -4 3 -12 -5 -18
-18z"/>
<path d="M2720 1011 c0 -6 5 -13 11 -16 7 -5 4 -14 -7 -26 -9 -10 -12 -19 -7
-19 18 0 32 25 26 48 -5 22 -23 31 -23 13z"/>
<path d="M1781 981 c-10 -6 -9 -10 3 -14 8 -3 18 -2 21 3 8 13 -9 20 -24 11z"/>
<path d="M1739 943 l24 -5 -29 -19 c-16 -10 -24 -19 -19 -19 15 0 55 29 55 41
0 5 -12 8 -27 8 -26 -2 -26 -2 -4 -6z"/>
<path d="M1580 897 c-18 -14 -25 -47 -10 -47 10 0 34 49 28 56 -2 1 -10 -3
-18 -9z"/>
<path d="M1776 895 c-4 -11 -22 -15 -70 -15 -64 0 -96 -15 -96 -43 0 -7 5 -5
10 5 8 12 32 18 95 23 47 4 82 11 79 16 -3 5 0 9 6 9 6 0 8 5 5 10 -9 15 -22
12 -29 -5z"/>
<path d="M346 845 c-3 -8 -1 -15 4 -15 6 0 10 7 10 15 0 8 -2 15 -4 15 -2 0
-6 -7 -10 -15z"/>
<path d="M1130 819 c-7 -11 -10 -23 -7 -25 2 -2 9 7 15 21 14 30 7 33 -8 4z"/>
<path d="M410 786 c41 -12 85 -26 98 -30 12 -4 22 -3 22 2 0 5 -6 9 -12 10 -7
0 -44 10 -83 21 -38 12 -76 21 -85 20 -8 0 19 -10 60 -23z"/>
<path d="M510 794 c0 -8 5 -12 10 -9 6 4 8 11 5 16 -9 14 -15 11 -15 -7z"/>
<path d="M2311 793 c6 -39 -22 -48 -208 -69 l-153 -17 0 -86 0 -86 128 7 c70
4 155 10 190 13 l62 7 0 119 c0 73 -4 119 -10 119 -5 0 -9 -3 -9 -7z m-11 -76
c0 -7 -6 -19 -12 -26 -10 -11 -10 -13 0 -7 12 7 14 -1 14 -59 0 -40 -1 -45
-13 -45 -5 0 -7 5 -3 11 8 14 -129 3 -157 -12 -9 -4 -47 -10 -85 -11 l-69 -3
-1 63 c-2 70 -1 71 65 57 21 -4 31 -4 27 3 -7 12 83 25 121 16 22 -4 25 -3 13
6 -12 9 -5 10 28 5 27 -5 42 -3 42 4 0 6 7 11 15 11 8 0 15 -6 15 -13z m-36
-137 c-7 -7 -19 -7 -35 -1 -23 9 -22 10 11 10 23 1 31 -2 24 -9z m-84 -10 c0
-13 -11 -13 -30 0 -12 8 -11 10 8 10 12 0 22 -4 22 -10z"/>
<path d="M2126 691 c-4 -5 3 -7 14 -4 23 6 26 13 6 13 -8 0 -17 -4 -20 -9z"/>
<path d="M2118 613 c12 -2 32 -2 45 0 12 2 2 4 -23 4 -25 0 -35 -2 -22 -4z"/>
<path d="M2090 774 c-63 -7 -119 -13 -125 -14 -5 0 -3 -5 6 -10 10 -6 37 -6
71 0 30 4 86 11 124 15 109 11 126 13 132 19 8 9 -81 5 -208 -10z"/>
<path d="M1630 759 c-19 -4 32 -5 115 -2 82 2 152 7 155 9 7 7 -230 1 -270 -7z"/>
<path d="M1456 748 c3 -5 10 -6 15 -3 13 9 11 12 -6 12 -8 0 -12 -4 -9 -9z"/>
<path d="M1568 753 c7 -3 16 -2 19 1 4 3 -2 6 -13 5 -11 0 -14 -3 -6 -6z"/>
<path d="M1184 739 c-3 -5 9 -9 25 -9 17 0 31 2 31 4 0 8 -51 13 -56 5z"/>
<path d="M1265 740 c12 -4 48 -4 80 0 l60 7 -80 1 c-51 0 -73 -2 -60 -8z"/>
<path d="M1410 746 c0 -2 7 -6 15 -10 8 -3 15 -1 15 4 0 6 -7 10 -15 10 -8 0
-15 -2 -15 -4z"/>
<path d="M621 725 c12 -12 285 -21 444 -14 l40 1 -40 9 c-41 8 -452 13 -444 4z"/>
<path d="M1912 670 c0 -14 2 -19 5 -12 2 6 2 18 0 25 -3 6 -5 1 -5 -13z"/>
<path d="M1880 641 c0 -14 4 -20 11 -15 9 5 10 -4 6 -32 -5 -27 -4 -33 3 -19
13 31 12 61 -5 75 -13 10 -15 9 -15 -9z"/>
<path d="M1840 483 c-7 -32 -16 -63 -21 -69 -6 -8 -4 -14 5 -17 9 -4 18 -1 22
5 4 7 3 8 -4 4 -15 -9 -15 -1 -1 25 10 20 22 109 15 109 -3 0 -10 -26 -16 -57z"/>
<path d="M1934 517 c3 -10 6 -33 7 -50 l1 -32 10 34 c8 28 6 37 -8 50 -16 15
-16 15 -10 -2z"/>
<path d="M2126 516 c-102 -7 -151 -15 -154 -23 -2 -9 6 -12 30 -8 40 5 126 13
231 20 72 5 77 5 77 -14 0 -11 -5 -23 -11 -26 -6 -4 -8 -14 -5 -22 3 -8 2 -23
-4 -32 -5 -10 -6 -21 -3 -25 8 -8 38 59 47 107 8 43 31 41 -208 23z"/>
<path d="M577 436 c-4 -9 -2 -16 4 -16 6 0 7 -4 4 -10 -5 -9 23 -14 71 -13 25
0 212 14 239 18 17 2 64 4 105 6 l75 2 -3 -34 c-2 -30 -1 -32 12 -19 8 8 16
29 18 45 l3 30 -55 -3 c-30 -2 -142 -10 -249 -17 -107 -8 -195 -14 -196 -12
-1 1 -7 10 -12 21 -9 16 -11 16 -16 2z"/>
<path d="M147 428 c-17 -10 -5 -18 38 -25 20 -3 48 -16 60 -29 13 -13 30 -21
38 -18 8 3 18 1 22 -5 3 -6 12 -11 18 -11 7 0 1 9 -13 20 -13 10 -27 14 -30 9
-4 -5 -15 -2 -26 6 -16 13 -16 14 -1 9 9 -3 17 -3 17 1 0 4 -8 14 -17 22 -12
9 -6 8 17 -3 19 -9 37 -20 40 -23 3 -4 48 -35 100 -70 52 -35 97 -68 98 -72 2
-5 8 -7 13 -3 5 3 9 0 9 -6 0 -7 6 -10 14 -7 9 4 13 0 12 -11 -2 -9 -9 -18
-16 -20 -8 -3 -10 0 -5 7 5 9 1 8 -14 -1 l-22 -13 22 -3 c12 -2 26 1 31 6 7 7
19 7 33 2 13 -5 25 -7 27 -5 3 4 140 17 403 40 254 22 268 24 560 52 149 14
285 25 303 25 17 0 32 3 32 6 0 4 24 7 53 8 86 1 272 16 274 23 2 3 27 4 55 2
29 -1 50 0 46 4 -3 3 -24 8 -45 9 -21 2 -46 6 -56 10 -9 5 -85 3 -168 -4 -136
-11 -157 -10 -217 6 -37 9 -72 21 -78 26 -6 4 -69 3 -140 -2 -71 -6 -210 -17
-309 -25 -99 -8 -191 -15 -206 -15 -21 0 -27 -6 -35 -37 l-9 -38 -90 -8 c-49
-4 -160 -14 -245 -22 l-155 -14 -145 97 c-141 94 -147 97 -213 102 -38 3 -74
2 -80 -2z m1538 -59 c-44 -4 -168 -15 -275 -24 -107 -9 -220 -18 -250 -20 -40
-4 -48 -3 -30 4 14 5 131 16 260 26 129 9 242 18 250 20 8 1 40 3 70 3 47 -1
43 -2 -25 -9z m178 -29 c20 -6 37 -12 37 -14 0 -2 -20 -4 -44 -4 -24 -1 -56
-3 -72 -6 -29 -5 -223 -24 -319 -31 -27 -3 -79 -7 -115 -9 -36 -3 -103 -10
-150 -16 -114 -13 -121 -13 -114 5 4 8 11 12 17 8 7 -4 8 0 3 13 -4 10 -4 16
-1 12 3 -3 23 -2 43 3 20 4 80 11 132 14 52 3 124 10 160 15 36 5 81 8 100 6
19 -2 40 0 45 5 25 19 212 18 278 -1z m370 13 c-7 -2 -21 -2 -30 0 -10 3 -4 5
12 5 17 0 24 -2 18 -5z"/>
<path d="M330 320 c-9 -6 -10 -10 -3 -10 6 0 15 5 18 10 8 12 4 12 -15 0z"/>
<path d="M2240 321 c0 -5 6 -12 13 -15 6 -3 2 -3 -10 0 -13 3 -23 1 -23 -5 0
-6 3 -10 8 -10 4 1 23 0 42 -1 33 -2 33 -3 10 -10 -18 -6 -20 -8 -7 -9 11 -1
15 -6 11 -13 -5 -8 -3 -8 7 -2 8 5 50 10 94 11 171 5 192 7 181 19 -6 7 -15
10 -19 7 -5 -3 -16 2 -26 11 -18 16 -51 13 -51 -5 0 -5 -11 -9 -25 -9 -14 0
-25 4 -25 9 0 5 9 7 20 4 11 -3 20 -1 20 4 0 5 -15 9 -34 9 -27 -1 -32 -4 -24
-13 13 -16 8 -16 -55 1 -86 23 -107 27 -107 17z"/>
<path d="M530 306 c7 -7 13 -7 20 0 6 6 3 10 -10 10 -13 0 -16 -4 -10 -10z"/>
<path d="M360 300 c0 -5 5 -10 11 -10 5 0 7 5 4 10 -3 6 -8 10 -11 10 -2 0 -4
-4 -4 -10z"/>
<path d="M417 260 c14 -16 30 -30 35 -30 14 0 38 -27 30 -34 -3 -4 1 -4 10 -1
15 6 15 8 -2 25 -10 10 -27 21 -39 25 -12 3 -26 15 -31 26 -6 10 -15 19 -20
19 -6 0 2 -13 17 -30z"/>
</g>
</svg>
